#N canvas 807 143 1090 621 12;
#X obj 50 64 osc~;
#X obj 91 114 *~;
#X obj 128 46 hsl 128 15 10 50 1 0 empty empty empty -2 -8 0 10 -262144
-1 -1 25500 1;
#X obj 24 17 hsl 128 15 0 5 0 0 empty empty empty -2 -8 0 10 -262144
-1 -1 8500 1;
#X obj 291 6 vsl 15 128 0.0001 0.01 0 0 empty empty empty 0 -9 0 10
-262144 -1 -1 0 1;
#X obj 291 142 line~;
#X obj 101 256 dac~ 1 2 3 4;
#X obj 392 13 vsl 15 128 1e-05 2 0 0 empty empty empty 0 -9 0 10 -262144
-1 -1 0 1;
#X obj 364 151 line~;
#X obj 485 8 vsl 15 128 0 0.01 0 0 empty empty empty 0 -9 0 10 -262144
-1 -1 7700 1;
#X obj 485 144 line~;
#X obj 319 -185;
#X obj 118 173 +~;
#X connect 0 0 1 0;
#X connect 1 0 12 0;
#X connect 2 0 1 1;
#X connect 2 0 12 1;
#X connect 3 0 0 0;
#X connect 4 0 5 0;
#X connect 5 0 6 1;
#X connect 7 0 8 0;
#X connect 8 0 6 2;
#X connect 9 0 10 0;
#X connect 10 0 6 3;
#X connect 12 0 6 0;
